<svg width="96" height="96" viewBox="0 0 96 96" fill="none" xmlns="http://www.w3.org/2000/svg" role="img" aria-labelledby="title desc">
  <title id="title">Logo Tempero de Maria</title>
  <desc id="desc">Marca circular com tigela e folha.</desc>
  <rect width="96" height="96" rx="22" fill="#173F2C"/>
  <circle cx="48" cy="48" r="33" fill="#236344"/>
  <path d="M27 54C29 66 38 73 48 73C58 73 67 66 69 54H27Z" fill="#FFF4D7"/>
  <path d="M30 54H66" stroke="#D9A839" stroke-width="5" stroke-linecap="round"/>
  <path d="M48 25C56 25 62 30 63 38C55 39 49 35 48 25Z" fill="#E5F5EC"/>
  <path d="M47 25C39 25 34 30 33 38C41 39 47 35 47 25Z" fill="#BFD8C2"/>
  <path d="M37 47C39 42 43 39 48 39C53 39 57 42 59 47" stroke="#FFF4D7" stroke-width="5" stroke-linecap="round"/>
  <text x="48" y="62" text-anchor="middle" font-family="Arial, Helvetica, sans-serif" font-size="19" font-weight="800" fill="#173F2C">TM</text>
</svg>
